<svg xmlns="http://www.w3.org/2000/svg" xmlns:xlink="http://www.w3.org/1999/xlink" width="100%" height="100%" preserveAspectRatio="xMidYMid slice" version="1.1" viewBox="0 0 1920 1080" xml:space="preserve" style="fill-rule:evenodd;clip-rule:evenodd;stroke-linecap:round"><rect width="1920" height="1080" x="0" y="0" style="fill:#111e31"/><g style="filter:url(#_Effect1)"><path d="M1446.49,1159.67c0,0 -91.352,-211.72 -160.333,-257.798c-57.513,-38.416 -135.395,-22.913 -173.812,34.6c-38.416,57.512 -22.913,135.394 34.6,173.811c68.981,46.078 299.545,49.387 299.545,49.387Z" style="fill:#23c4f1"/></g><g style="filter:url(#_Effect2)"><path d="M391.953,299.533c-0,-0 -91.352,-211.721 -160.333,-257.798c-57.513,-38.417 -135.395,-22.914 -173.812,34.599c-38.417,57.512 -22.913,135.395 34.599,173.811c68.982,46.078 299.546,49.388 299.546,49.388Z" style="fill:#23c4f1"/></g><g style="filter:url(#_Effect3)"><path d="M777.409,589.144c-0,0 234.213,-53.21 262.214,-111.051c45.12,-93.207 6.08,-205.512 -87.127,-250.632c-93.207,-45.121 -205.512,-6.081 -250.632,87.126c-28.001,57.842 75.545,274.557 75.545,274.557Z" style="fill:#23c4f1"/></g><g style="filter:url(#_Effect4)"><g><path d="M-910.929,821.656c9.944,2.15 18.877,7.187 27.223,12.066c12.005,7.018 23.417,14.781 35.001,22.308c6.12,3.977 12.273,7.915 18.525,11.733c33.277,20.32 75.765,41.972 119.239,30.503c6.447,-1.701 12.684,-4.086 18.592,-7.023c9.158,-4.554 17.485,-10.395 24.993,-16.922c12.123,-10.539 20.608,-24.073 27.543,-37.54c11.431,-22.198 19.163,-45.709 25.926,-69.122c21.909,-75.855 32.222,-153.547 55.83,-229.11c2.279,-7.295 4.708,-14.561 7.359,-21.773c2.238,-6.089 4.634,-12.141 7.255,-18.125c1.946,-4.44 4.016,-8.843 6.253,-13.185c10.618,-20.606 27.855,-46.189 56.113,-48.571c4.122,-0.348 8.256,-0.178 12.29,0.396c17.376,2.47 31.838,13.478 43.419,24.152c22.972,21.173 40.554,46.952 56.847,72.463c63.264,99.062 108.12,206.922 168.568,307.358c18.723,31.106 38.705,62.926 65.666,88.948c12.484,12.05 28.919,25.42 48.737,26.834c28.87,2.061 46.678,-22.636 57.013,-43.331c1.941,-3.886 3.727,-7.827 5.398,-11.8c2.061,-4.902 3.945,-9.855 5.702,-14.836c2.378,-6.74 4.522,-13.535 6.509,-20.357c2.581,-8.863 4.895,-17.775 7.04,-26.71c20.826,-86.734 27.537,-175.258 51.906,-261.516c6.507,-23.034 14.257,-46.39 26.894,-67.7c7.292,-12.297 16.732,-24.65 30.043,-32.561c4.634,-2.753 9.603,-5.064 14.833,-6.699c30.586,-9.565 59.524,7.71 80.628,24.344c4.166,3.284 8.205,6.692 12.149,10.182c12.879,11.392 24.801,23.607 36.483,35.963c9.858,10.426 19.529,20.991 29.315,31.47c7.269,7.784 14.595,15.527 22.12,23.116c5.637,5.686 11.394,11.275 17.312,16.732c4.433,4.089 8.991,8.076 13.681,11.934c23.395,19.244 55.651,39.957 90.59,30.109c34.041,-9.594 54.503,-40.424 68.622,-67.334c30.711,-58.535 44.14,-122.157 72.155,-181.525c2.602,-5.515 5.342,-10.985 8.275,-16.381c14.365,-26.436 35.744,-56.454 70.484,-63.159c34.266,-6.614 64.895,12.981 87.775,31.899c4.744,3.922 9.334,7.989 13.811,12.15c48.679,45.243 84.898,100.265 135.933,143.597c22.969,19.503 53.528,40.284 88.462,35.464c38.824,-5.356 61.642,-40.273 76.655,-69.091c3.099,-5.948 6,-11.968 8.77,-18.029c3.377,-7.387 6.555,-14.837 9.623,-22.317c4.074,-9.933 7.945,-19.923 11.774,-29.922c5.142,-13.428 10.183,-26.882 15.475,-40.269c6.689,-16.921 13.726,-33.79 22.16,-50.169c15.389,-29.887 39.458,-66.827 80.724,-69.355c29.942,-1.835 55.661,16.446 75.163,33.546c4.077,3.575 8.025,7.266 11.872,11.036c52.015,50.976 88.564,112.781 137.334,166.068c4.577,5 9.271,9.917 14.132,14.701c3.746,3.687 7.59,7.295 11.566,10.788c21.088,18.53 51.371,39.019 83.979,28.752c24.527,-7.723 38.422,-31.951 47.559,-51.59c2.223,-4.779 4.264,-9.618 6.171,-14.491c2.301,-5.882 4.407,-11.815 6.373,-17.777c26.808,-81.297 33.415,-165.774 55.553,-247.824c2.074,-7.686 4.299,-15.347 6.759,-22.96c1.866,-5.772 3.865,-11.517 6.059,-17.211c1.804,-4.681 3.738,-9.33 5.854,-13.92c9.234,-20.025 25.208,-47.186 53.332,-48.125c3.964,-0.132 7.904,0.267 11.716,1.046c17.901,3.657 32.42,15.956 44.071,27.536c23.359,23.218 41.266,50.794 57.941,78.133c63.695,104.424 109.505,217.092 170.516,322.777c19.382,33.574 39.97,68.029 68.13,96.387c12.371,12.458 28.863,26.763 49.029,28.347c28.628,2.249 45.312,-24.272 54.574,-44.439c1.914,-4.169 3.661,-8.391 5.286,-12.643c2.017,-5.277 3.845,-10.603 5.539,-15.955c2.305,-7.279 4.362,-14.607 6.256,-21.961c2.256,-8.764 4.278,-17.565 6.149,-26.383c20.164,-95.068 24.553,-191.864 49.043,-286.435c6.24,-24.096 13.701,-48.917 27.333,-70.984c7.161,-11.592 16.844,-23.376 30.681,-29.258c30.093,-12.791 59.01,8.023 77.974,25.505c4.111,3.79 8.059,7.717 11.887,11.733c4.57,4.793 8.97,9.715 13.25,14.716c35.63,41.634 64.374,87.723 96.143,131.719c15.333,21.233 31.177,42.321 49.399,61.666c3.857,4.094 7.83,8.101 11.964,11.976c18.637,17.47 47.016,39.071 77.46,28.467c17.648,-6.147 31.61,-18.953 42.703,-32.284c21.601,-25.956 35.748,-56.511 47.865,-86.385c29.69,-73.2 47.397,-149.519 65.902,-224.918c5.978,-24.359 11.887,-48.736 18.48,-72.999c4.913,-18.078 9.984,-36.276 17.168,-53.869" style="fill:none;fill-rule:nonzero;stroke:#405594;stroke-width:133.61px"/></g></g><g style="filter:url(#_Effect5)"><path d="M107.053,1406.23c332.501,-1308.7 665.002,-1780.12 997.503,-1414.27c332.501,365.85 665.002,837.275 997.503,1414.27" style="fill:none;fill-rule:nonzero;stroke:#23c4f1;stroke-width:78.83px"/></g><g><g><path d="M44.232,725.083l-18.622,-9.083c-10.429,-5.086 -14.626,-17.276 -9.54,-27.705l18.623,9.083c10.428,5.086 14.626,17.277 9.539,27.705Z" style="fill:none;fill-rule:nonzero;stroke:#fff;stroke-opacity:.64;stroke-width:1px;stroke-linecap:butt;stroke-linejoin:round;stroke-miterlimit:2"/><g style="filter:url(#_Effect6)"><path d="M329.393,616.278l-16.829,4.826c-9.424,2.702 -18.952,-2.579 -21.654,-12.004l16.828,-4.825c9.425,-2.703 18.953,2.579 21.655,12.003Z" style="fill:none;fill-rule:nonzero;stroke:#fff;stroke-opacity:.54;stroke-width:1px;stroke-linecap:butt;stroke-linejoin:round;stroke-miterlimit:2"/></g><g style="filter:url(#_Effect7)"><path d="M517.093,367.474l-2.667,12.549c-1.494,7.028 -8.189,11.376 -15.217,9.882l2.668,-12.55c1.493,-7.027 8.189,-11.375 15.216,-9.881Z" style="fill:none;fill-rule:nonzero;stroke:#fff;stroke-opacity:.39;stroke-width:1px;stroke-linecap:butt;stroke-linejoin:round;stroke-miterlimit:2"/></g><path d="M25.253,414.798l-18.925,-7.646c-10.598,-4.282 -15.561,-15.974 -11.279,-26.572l18.925,7.647c10.599,4.282 15.561,15.973 11.279,26.571Z" style="fill:none;fill-rule:nonzero;stroke:#fff;stroke-opacity:.63;stroke-width:1px;stroke-linecap:butt;stroke-linejoin:round;stroke-miterlimit:2"/><path d="M129.536,392.715l-17.518,-12.267c-9.81,-6.869 -12.121,-19.974 -5.252,-29.784l17.518,12.266c9.811,6.869 12.122,19.975 5.252,29.785Z" style="fill:none;fill-rule:nonzero;stroke:#fff;stroke-opacity:.66;stroke-width:1px;stroke-linecap:butt;stroke-linejoin:round;stroke-miterlimit:2"/><g style="filter:url(#_Effect8)"><path d="M283.61,721.16l-18.955,-0.993c-10.616,-0.556 -18.519,-9.334 -17.963,-19.949l18.956,0.993c10.615,0.557 18.518,9.334 17.962,19.949Z" style="fill:none;fill-rule:nonzero;stroke:#fff;stroke-opacity:.58;stroke-width:1px;stroke-linecap:butt;stroke-linejoin:round;stroke-miterlimit:2"/></g><g style="filter:url(#_Effect9)"><path d="M405.681,519.277l-9.859,11.342c-5.521,6.351 -14.849,7.003 -21.2,1.482l9.859,-11.341c5.521,-6.351 14.849,-7.004 21.2,-1.483Z" style="fill:none;fill-rule:nonzero;stroke:#fff;stroke-opacity:.46;stroke-width:1px;stroke-linecap:butt;stroke-linejoin:round;stroke-miterlimit:2"/></g><g style="filter:url(#_Effect10)"><path d="M316.456,205.431l-17.741,3.128c-9.934,1.752 -19.116,-4.677 -20.868,-14.612l17.74,-3.128c9.935,-1.752 19.117,4.678 20.869,14.612Z" style="fill:none;fill-rule:nonzero;stroke:#fff;stroke-opacity:.55;stroke-width:1px;stroke-linecap:butt;stroke-linejoin:round;stroke-miterlimit:2"/></g><g style="filter:url(#_Effect11)"><path d="M332.393,415.278l-16.829,4.826c-9.424,2.702 -18.952,-2.579 -21.654,-12.004l16.828,-4.825c9.425,-2.703 18.953,2.579 21.655,12.003Z" style="fill:none;fill-rule:nonzero;stroke:#fff;stroke-opacity:.54;stroke-width:1px;stroke-linecap:butt;stroke-linejoin:round;stroke-miterlimit:2"/></g><g style="filter:url(#_Effect12)"><path d="M397.765,705.789l-11.331,10.566c-6.345,5.917 -15.98,5.58 -21.897,-0.765l11.331,-10.566c6.345,-5.917 15.98,-5.581 21.897,0.765Z" style="fill:none;fill-rule:nonzero;stroke:#fff;stroke-opacity:.47;stroke-width:1px;stroke-linecap:butt;stroke-linejoin:round;stroke-miterlimit:2"/></g><path d="M236.976,365.829l-19.116,-6.582c-10.704,-3.686 -16.219,-14.993 -12.533,-25.697l19.115,6.582c10.705,3.685 16.219,14.992 12.534,25.697Z" style="fill:none;fill-rule:nonzero;stroke:#fff;stroke-opacity:.62;stroke-width:1px;stroke-linecap:butt;stroke-linejoin:round;stroke-miterlimit:2"/><g style="filter:url(#_Effect13)"><path d="M429.629,424.173l-8.576,11.804c-4.802,6.61 -13.769,8.03 -20.379,3.228l8.575,-11.804c4.803,-6.61 13.77,-8.03 20.38,-3.228Z" style="fill:none;fill-rule:nonzero;stroke:#fff;stroke-opacity:.45;stroke-width:1px;stroke-linecap:butt;stroke-linejoin:round;stroke-miterlimit:2"/></g><path d="M214.743,462.431l-18.77,-8.357c-10.512,-4.68 -15.093,-16.616 -10.413,-27.127l18.77,8.357c10.511,4.68 15.093,16.616 10.413,27.127Z" style="fill:none;fill-rule:nonzero;stroke:#fff;stroke-opacity:.63;stroke-width:1px;stroke-linecap:butt;stroke-linejoin:round;stroke-miterlimit:2"/><path d="M59.769,124.764l-13.724,-18.213c-7.685,-10.199 -5.71,-24.251 4.488,-31.936l13.724,18.212c7.686,10.199 5.711,24.251 -4.488,31.937Z" style="fill:none;fill-rule:nonzero;stroke:#fff;stroke-opacity:.7;stroke-width:1px;stroke-linecap:butt;stroke-linejoin:round;stroke-miterlimit:2"/><g style="filter:url(#_Effect14)"><path d="M298.118,522.962l-18.482,0.968c-10.351,0.543 -18.909,-7.163 -19.451,-17.513l18.482,-0.969c10.35,-0.542 18.909,7.164 19.451,17.514Z" style="fill:none;fill-rule:nonzero;stroke:#fff;stroke-opacity:.57;stroke-width:1px;stroke-linecap:butt;stroke-linejoin:round;stroke-miterlimit:2"/></g><path d="M184.121,560.333l-18.233,-10.527c-10.211,-5.895 -13.602,-18.55 -7.707,-28.761l18.234,10.527c10.211,5.896 13.601,18.55 7.706,28.761Z" style="fill:none;fill-rule:nonzero;stroke:#fff;stroke-opacity:.65;stroke-width:1px;stroke-linecap:butt;stroke-linejoin:round;stroke-miterlimit:2"/><path d="M216.743,644.431l-18.77,-8.357c-10.512,-4.68 -15.093,-16.616 -10.413,-27.127l18.77,8.357c10.511,4.68 15.093,16.616 10.413,27.127Z" style="fill:none;fill-rule:nonzero;stroke:#fff;stroke-opacity:.63;stroke-width:1px;stroke-linecap:butt;stroke-linejoin:round;stroke-miterlimit:2"/><path d="M102.895,498.502l-17.72,-11.953c-9.923,-6.693 -12.461,-19.749 -5.768,-29.672l17.72,11.952c9.924,6.693 12.461,19.749 5.768,29.673Z" style="fill:none;fill-rule:nonzero;stroke:#fff;stroke-opacity:.66;stroke-width:1px;stroke-linecap:butt;stroke-linejoin:round;stroke-miterlimit:2"/><g style="filter:url(#_Effect15)"><path d="M420.258,9.967l-13.796,8.62c-7.726,4.828 -17.589,2.551 -22.417,-5.175l13.796,-8.621c7.726,-4.827 17.589,-2.55 22.417,5.176Z" style="fill:none;fill-rule:nonzero;stroke:#fff;stroke-opacity:.5;stroke-width:1px;stroke-linecap:butt;stroke-linejoin:round;stroke-miterlimit:2"/></g><path d="M95.982,25.058l3.188,-25.963c1.785,-14.539 14.611,-24.56 29.151,-22.775l-3.188,25.963c-1.785,14.539 -14.612,24.56 -29.151,22.775Z" style="fill:none;fill-rule:nonzero;stroke:#fff;stroke-opacity:.8;stroke-width:1px;stroke-linecap:butt;stroke-linejoin:round;stroke-miterlimit:2"/><g style="filter:url(#_Effect16)"><path d="M429.629,615.173l-8.576,11.804c-4.802,6.61 -13.769,8.03 -20.379,3.228l8.575,-11.804c4.803,-6.61 13.77,-8.03 20.38,-3.228Z" style="fill:none;fill-rule:nonzero;stroke:#fff;stroke-opacity:.45;stroke-width:1px;stroke-linecap:butt;stroke-linejoin:round;stroke-miterlimit:2"/></g><g style="filter:url(#_Effect17)"><path d="M505.725,73.827l-5.314,12.519c-2.976,7.011 -10.823,10.181 -17.833,7.205l5.314,-12.519c2.976,-7.01 10.822,-10.18 17.833,-7.205Z" style="fill:none;fill-rule:nonzero;stroke:#fff;stroke-opacity:.42;stroke-width:1px;stroke-linecap:butt;stroke-linejoin:round;stroke-miterlimit:2"/></g><g style="filter:url(#_Effect18)"><path d="M325.393,301.278l-16.829,4.826c-9.424,2.702 -18.952,-2.579 -21.654,-12.004l16.828,-4.825c9.425,-2.703 18.953,2.579 21.655,12.003Z" style="fill:none;fill-rule:nonzero;stroke:#fff;stroke-opacity:.54;stroke-width:1px;stroke-linecap:butt;stroke-linejoin:round;stroke-miterlimit:2"/></g><path d="M21.395,210.139l-19.175,-5.862c-10.738,-3.283 -16.595,-14.3 -13.312,-25.037l19.174,5.862c10.738,3.283 16.596,14.299 13.313,25.037Z" style="fill:none;fill-rule:nonzero;stroke:#fff;stroke-opacity:.62;stroke-width:1px;stroke-linecap:butt;stroke-linejoin:round;stroke-miterlimit:2"/><g style="filter:url(#_Effect19)"><path d="M324.349,12.401l-19.243,-4.09c-10.776,-2.291 -17.443,-12.557 -15.153,-23.334l19.243,4.091c10.777,2.29 17.444,12.557 15.153,23.333Z" style="fill:none;fill-rule:nonzero;stroke:#fff;stroke-opacity:.6;stroke-width:1px;stroke-linecap:butt;stroke-linejoin:round;stroke-miterlimit:2"/></g><path d="M155.527,727.936l-17.999,-11.247c-10.08,-6.299 -13.051,-19.167 -6.753,-29.247l18,11.247c10.08,6.299 13.051,19.168 6.752,29.247Z" style="fill:none;fill-rule:nonzero;stroke:#fff;stroke-opacity:.65;stroke-width:1px;stroke-linecap:butt;stroke-linejoin:round;stroke-miterlimit:2"/></g><g><g style="filter:url(#_Effect20)"><path d="M420.681,325.277l-9.859,11.342c-5.521,6.351 -14.849,7.003 -21.2,1.482l9.859,-11.341c5.521,-6.351 14.849,-7.004 21.2,-1.483Z" style="fill:#405594;fill-opacity:.46;fill-rule:nonzero;stroke:#405594;stroke-opacity:.46;stroke-width:1px;stroke-linecap:butt;stroke-linejoin:round;stroke-miterlimit:2"/></g><path d="M121.536,210.715l-17.518,-12.267c-9.81,-6.869 -12.121,-19.974 -5.252,-29.784l17.518,12.266c9.811,6.869 12.122,19.975 5.252,29.785Z" style="fill:#405594;fill-opacity:.66;fill-rule:nonzero;stroke:#405594;stroke-opacity:.66;stroke-width:1px;stroke-linecap:butt;stroke-linejoin:round;stroke-miterlimit:2"/><g style="filter:url(#_Effect21)"><path d="M313.369,102.881l-19.051,-1.666c-10.669,-0.934 -18.318,-10.049 -17.384,-20.718l19.051,1.667c10.668,0.933 18.317,10.049 17.384,20.717Z" style="fill:#405594;fill-opacity:.59;fill-rule:nonzero;stroke:#405594;stroke-opacity:.59;stroke-width:1px;stroke-linecap:butt;stroke-linejoin:round;stroke-miterlimit:2"/></g><path d="M227.976,165.829l-19.116,-6.582c-10.704,-3.686 -16.219,-14.993 -12.533,-25.697l19.115,6.582c10.705,3.685 16.219,14.992 12.534,25.697Z" style="fill:#405594;fill-opacity:.62;fill-rule:nonzero;stroke:#405594;stroke-opacity:.62;stroke-width:1px;stroke-linecap:butt;stroke-linejoin:round;stroke-miterlimit:2"/><g style="filter:url(#_Effect22)"><path d="M516.093,580.474l-2.667,12.549c-1.494,7.028 -8.189,11.376 -15.217,9.882l2.668,-12.55c1.493,-7.027 8.189,-11.375 15.216,-9.881Z" style="fill:#405594;fill-opacity:.39;fill-rule:nonzero;stroke:#405594;stroke-opacity:.39;stroke-width:1px;stroke-linecap:butt;stroke-linejoin:round;stroke-miterlimit:2"/></g><g style="filter:url(#_Effect23)"><path d="M513.796,161.812l-3.365,12.56c-1.885,7.033 -8.891,11.079 -15.925,9.194l3.365,-12.559c1.885,-7.034 8.892,-11.079 15.925,-9.195Z" style="fill:#405594;fill-opacity:.4;fill-rule:nonzero;stroke:#405594;stroke-opacity:.4;stroke-width:1px;stroke-linecap:butt;stroke-linejoin:round;stroke-miterlimit:2"/></g><path d="M87.215,307.223l-17.864,-11.602c-10.004,-6.496 -12.76,-19.461 -6.263,-29.465l17.864,11.601c10.004,6.497 12.76,19.462 6.263,29.466Z" style="fill:#405594;fill-opacity:.65;fill-rule:nonzero;stroke:#405594;stroke-opacity:.65;stroke-width:1px;stroke-linecap:butt;stroke-linejoin:round;stroke-miterlimit:2"/><g style="filter:url(#_Effect24)"><path d="M407.379,121.28l-10.818,10.819c-6.059,6.058 -15.579,6.058 -21.638,-0l10.819,-10.819c6.058,-6.059 15.579,-6.059 21.637,-0Z" style="fill:#405594;fill-opacity:.47;fill-rule:nonzero;stroke:#405594;stroke-opacity:.47;stroke-width:1px;stroke-linecap:butt;stroke-linejoin:round;stroke-miterlimit:2"/></g><g style="filter:url(#_Effect26)"><path d="M514.796,262.812l-3.365,12.56c-1.885,7.033 -8.891,11.079 -15.925,9.194l3.365,-12.559c1.885,-7.034 8.892,-11.079 15.925,-9.195Z" style="fill:#405594;fill-opacity:.4;fill-rule:nonzero;stroke:#405594;stroke-opacity:.4;stroke-width:1px;stroke-linecap:butt;stroke-linejoin:round;stroke-miterlimit:2"/></g><g style="filter:url(#_Effect27)"><path d="M418.681,222.277l-9.859,11.342c-5.521,6.351 -14.849,7.003 -21.2,1.482l9.859,-11.341c5.521,-6.351 14.849,-7.004 21.2,-1.483Z" style="fill:#405594;fill-opacity:.46;fill-rule:nonzero;stroke:#405594;stroke-opacity:.46;stroke-width:1px;stroke-linecap:butt;stroke-linejoin:round;stroke-miterlimit:2"/></g><path d="M16.395,532.139l-19.175,-5.862c-10.738,-3.283 -16.595,-14.3 -13.312,-25.037l19.174,5.862c10.738,3.283 16.596,14.299 13.313,25.037Z" style="fill:#405594;fill-opacity:.62;fill-rule:nonzero;stroke:#405594;stroke-opacity:.62;stroke-width:1px;stroke-linecap:butt;stroke-linejoin:round;stroke-miterlimit:2"/><path d="M212.809,37.943l-11.028,-20.74c-6.175,-11.614 -1.902,-25.592 9.713,-31.767l11.027,20.739c6.176,11.615 1.902,25.592 -9.712,31.768Z" style="fill:#405594;fill-opacity:.72;fill-rule:nonzero;stroke:#405594;stroke-opacity:.72;stroke-width:1px;stroke-linecap:butt;stroke-linejoin:round;stroke-miterlimit:2"/><g style="filter:url(#_Effect28)"><path d="M514.796,477.812l-3.365,12.56c-1.885,7.033 -8.891,11.079 -15.925,9.194l3.365,-12.559c1.885,-7.034 8.892,-11.079 15.925,-9.195Z" style="fill:#405594;fill-opacity:.4;fill-rule:nonzero;stroke:#405594;stroke-opacity:.4;stroke-width:1px;stroke-linecap:butt;stroke-linejoin:round;stroke-miterlimit:2"/></g><path d="M201.981,276.423l-18.557,-9.455c-10.392,-5.295 -14.397,-17.621 -9.102,-28.013l18.557,9.456c10.392,5.295 14.397,17.62 9.102,28.012Z" style="fill:#405594;fill-opacity:.64;fill-rule:nonzero;stroke:#405594;stroke-opacity:.64;stroke-width:1px;stroke-linecap:butt;stroke-linejoin:round;stroke-miterlimit:2"/><g style="filter:url(#_Effect29)"><path d="M-3.679,305.378l-19.211,-4.083c-10.759,-2.287 -17.415,-12.537 -15.128,-23.295l19.211,4.084c10.758,2.286 17.414,12.536 15.128,23.294Z" style="fill:#405594;fill-opacity:.6;fill-rule:nonzero;stroke:#405594;stroke-opacity:.6;stroke-width:1px;stroke-linecap:butt;stroke-linejoin:round;stroke-miterlimit:2"/></g><path d="M93.215,624.223l-17.864,-11.602c-10.004,-6.496 -12.76,-19.461 -6.263,-29.465l17.864,11.601c10.004,6.497 12.76,19.462 6.263,29.466Z" style="fill:#405594;fill-opacity:.65;fill-rule:nonzero;stroke:#405594;stroke-opacity:.65;stroke-width:1px;stroke-linecap:butt;stroke-linejoin:round;stroke-miterlimit:2"/><g style="filter:url(#_Effect30)"><path d="M517.009,-11.591l-4.574,12.567c-2.562,7.038 -10.104,10.554 -17.141,7.993l4.574,-12.567c2.561,-7.037 10.103,-10.554 17.141,-7.993Z" style="fill:#405594;fill-opacity:.41;fill-rule:nonzero;stroke:#405594;stroke-opacity:.41;stroke-width:1px;stroke-linecap:butt;stroke-linejoin:round;stroke-miterlimit:2"/></g><path d="M151.346,113.931l-13.453,-18.516c-7.533,-10.368 -5.305,-24.434 5.064,-31.967l13.452,18.515c7.533,10.369 5.306,24.435 -5.063,31.968Z" style="fill:#405594;fill-opacity:.7;fill-rule:nonzero;stroke:#405594;stroke-opacity:.7;stroke-width:1px;stroke-linecap:butt;stroke-linejoin:round;stroke-miterlimit:2"/><path d="M0.944,27.443l2.264,-25.886c1.269,-14.496 13.655,-24.889 28.151,-23.621l-2.265,25.886c-1.268,14.496 -13.654,24.889 -28.15,23.621Z" style="fill:#405594;fill-opacity:.8;fill-rule:nonzero;stroke:#405594;stroke-opacity:.8;stroke-width:1px;stroke-linecap:butt;stroke-linejoin:round;stroke-miterlimit:2"/><g style="filter:url(#_Effect31)"><path d="M510.796,692.812l-3.365,12.56c-1.885,7.033 -8.891,11.079 -15.925,9.194l3.365,-12.559c1.885,-7.034 8.892,-11.079 15.925,-9.195Z" style="fill:#405594;fill-opacity:.4;fill-rule:nonzero;stroke:#405594;stroke-opacity:.4;stroke-width:1px;stroke-linecap:butt;stroke-linejoin:round;stroke-miterlimit:2"/></g></g></g><g style="filter:url(#_Effect32)"><g><path d="M-1599.9,836.219c24.803,4.203 45.528,21.037 66.006,35.868c19.709,14.274 40.18,27.036 62.504,35.655c78.461,30.295 166.817,13.339 244.125,-8.887c78.26,-22.499 152.312,-60.887 224.047,-100.471c107.435,-59.284 211.143,-125.947 317.729,-186.924c56.829,-32.511 114.672,-64.238 175.445,-87.511c37.124,-14.217 77.036,-26.492 117.043,-24.53c9.402,0.461 18.864,1.939 27.846,5.253c5.441,2.007 10.687,4.707 15.474,8.21c28.585,20.926 30.889,63.229 29.729,96.728c-0.708,20.43 -2.971,40.737 -5.559,60.934c-1.987,15.501 -4.214,30.96 -6.349,46.435c-1.736,12.592 -3.432,25.192 -4.898,37.83c-1.094,9.435 -2.062,18.889 -2.807,28.372c-0.597,7.6 -1.05,15.216 -1.287,22.847c-1.134,36.5 1.726,81.81 31.535,105.803c4.5,3.622 9.423,6.586 14.572,8.926c8.372,3.803 17.287,5.972 26.24,7.078c23.825,2.945 47.961,-1.065 70.89,-7.443c36.366,-10.115 71.055,-26.533 104.549,-44.486c108.916,-58.379 207.834,-135.67 314.389,-198.568c36.862,-21.759 75,-42.44 115.453,-55.431c24.792,-7.961 51.327,-13.221 77.375,-9.184c7.682,1.191 15.284,3.309 22.443,6.689c36.01,16.997 46.72,61.205 50.496,99.689c2.116,21.565 2.414,43.276 2.275,64.9c-0.105,16.293 -0.506,32.577 -0.852,48.861c-0.269,12.691 -0.515,25.384 -0.573,38.083c-0.045,9.747 0.022,19.497 0.291,29.246c0.217,7.844 0.566,15.685 1.114,23.516c2.865,40.987 11.178,92.177 48.799,112.939c5.783,3.191 11.947,5.488 18.246,7.022c10.187,2.481 20.681,3.011 31.031,2.41c27.125,-1.576 53.42,-11.091 77.982,-22.779c38,-18.081 73.373,-42.261 107.339,-67.852c108.178,-81.504 203.904,-180.362 308.58,-266.779c35.616,-29.402 72.469,-57.963 112.558,-79.901c25.499,-13.953 53.242,-25.824 82.216,-27.636c9.827,-0.615 19.787,-0.071 29.453,2.331c41.392,10.288 60.376,53.625 70.819,94.316c4.858,18.927 8.336,38.222 11.48,57.527c2.467,15.145 4.71,30.329 7.036,45.497c1.753,11.428 3.565,22.847 5.573,34.23c1.576,8.934 3.271,17.847 5.176,26.712c10.482,48.789 29.202,106.877 78.331,122.764c8.526,2.757 17.38,4.095 26.22,4.366c57.825,1.772 112.186,-33.576 157.596,-67.963c82.018,-62.108 152.145,-140.362 231.966,-205.504c43.573,-35.56 94.62,-73.087 151.215,-76.418c10.546,-0.62 21.198,-0.04 31.62,2.197c40.404,8.675 68.035,42.486 88.609,79.314c7.103,12.714 13.552,25.839 19.824,39.043c4.84,10.188 9.565,20.437 14.372,30.643c25.12,53.327 55.768,114.756 113.314,130.918c10.482,2.944 21.287,4.246 32.053,4.221c43.88,-0.104 84.504,-22.529 119.606,-48.727c61.71,-46.056 112.283,-106.878 169.548,-158.788c42.028,-38.098 94.598,-79.318 153.152,-69.609c42.189,6.995 71.918,42.995 93.473,80.706c39.633,69.341 60.817,148.827 99.852,218.546c25.072,44.781 61.129,88.453 112.467,90.021c56.738,1.733 108.91,-34.52 150.914,-71.615c57.09,-50.417 104.968,-112.183 151.471,-173.784c16.321,-21.62 32.472,-43.406 49.232,-64.623c12.229,-15.479 24.701,-31.038 39.003,-44.303" style="fill:none;fill-rule:nonzero;stroke:#dc275c;stroke-width:300px;stroke-linecap:butt;stroke-linejoin:round;stroke-miterlimit:2"/></g></g><g><g><path d="M1952.99,625.692l-18.623,-9.083c-10.428,-5.086 -14.626,-17.277 -9.54,-27.705l18.623,9.083c10.428,5.086 14.626,17.276 9.54,27.705Z" style="fill:none;fill-rule:nonzero;stroke:#fff;stroke-opacity:.64;stroke-width:1px;stroke-linecap:butt;stroke-linejoin:round;stroke-miterlimit:2"/><path d="M1934.02,315.407l-18.926,-7.647c-10.598,-4.282 -15.561,-15.973 -11.279,-26.571l18.926,7.646c10.598,4.282 15.561,15.974 11.279,26.572Z" style="fill:none;fill-rule:nonzero;stroke:#fff;stroke-opacity:.63;stroke-width:1px;stroke-linecap:butt;stroke-linejoin:round;stroke-miterlimit:2"/><g style="filter:url(#_Effect33)"><path d="M1823.83,459.477l-15.608,6.625c-8.74,3.71 -18.523,-0.242 -22.233,-8.983l15.608,-6.625c8.74,-3.71 18.523,0.242 22.233,8.983Z" style="fill:none;fill-rule:nonzero;stroke:#fff;stroke-opacity:.52;stroke-width:1px;stroke-linecap:butt;stroke-linejoin:round;stroke-miterlimit:2"/></g><g style="filter:url(#_Effect34)"><path d="M1727.53,599.397l-5.335,12.568c-2.988,7.039 -10.865,10.221 -17.904,7.234l5.335,-12.569c2.988,-7.038 10.865,-10.221 17.904,-7.233Z" style="fill:none;fill-rule:nonzero;stroke:#fff;stroke-opacity:.42;stroke-width:1px;stroke-linecap:butt;stroke-linejoin:round;stroke-miterlimit:2"/></g><g style="filter:url(#_Effect35)"><path d="M1722.35,209.274l-3.14,12.594c-1.758,7.052 -8.681,11.212 -15.733,9.454l3.14,-12.594c1.758,-7.053 8.681,-11.213 15.733,-9.454Z" style="fill:none;fill-rule:nonzero;stroke:#fff;stroke-opacity:.4;stroke-width:1px;stroke-linecap:butt;stroke-linejoin:round;stroke-miterlimit:2"/></g><g style="filter:url(#_Effect36)"><path d="M1834.22,76.898l-16.883,4.841c-9.454,2.711 -19.013,-2.587 -21.724,-12.042l16.883,-4.841c9.454,-2.711 19.013,2.588 21.724,12.042Z" style="fill:none;fill-rule:nonzero;stroke:#fff;stroke-opacity:.54;stroke-width:1px;stroke-linecap:butt;stroke-linejoin:round;stroke-miterlimit:2"/></g><g style="filter:url(#_Effect37)"><path d="M1727.53,303.397l-5.335,12.568c-2.988,7.039 -10.865,10.221 -17.904,7.234l5.335,-12.569c2.988,-7.038 10.865,-10.221 17.904,-7.233Z" style="fill:none;fill-rule:nonzero;stroke:#fff;stroke-opacity:.42;stroke-width:1px;stroke-linecap:butt;stroke-linejoin:round;stroke-miterlimit:2"/></g><g style="filter:url(#_Effect38)"><path d="M1830.83,261.477l-15.608,6.625c-8.74,3.71 -18.523,-0.242 -22.233,-8.983l15.608,-6.625c8.74,-3.71 18.523,0.242 22.233,8.983Z" style="fill:none;fill-rule:nonzero;stroke:#fff;stroke-opacity:.52;stroke-width:1px;stroke-linecap:butt;stroke-linejoin:round;stroke-miterlimit:2"/></g><g style="filter:url(#_Effect39)"><path d="M1726.53,36.397l-5.335,12.568c-2.988,7.039 -10.865,10.221 -17.904,7.234l5.335,-12.569c2.988,-7.038 10.865,-10.221 17.904,-7.233Z" style="fill:none;fill-rule:nonzero;stroke:#fff;stroke-opacity:.42;stroke-width:1px;stroke-linecap:butt;stroke-linejoin:round;stroke-miterlimit:2"/></g><g style="filter:url(#_Effect40)"><path d="M1722.35,399.274l-3.14,12.594c-1.758,7.052 -8.681,11.212 -15.733,9.454l3.14,-12.594c1.758,-7.053 8.681,-11.213 15.733,-9.454Z" style="fill:none;fill-rule:nonzero;stroke:#fff;stroke-opacity:.4;stroke-width:1px;stroke-linecap:butt;stroke-linejoin:round;stroke-miterlimit:2"/></g><g style="filter:url(#_Effect41)"><path d="M1720.35,117.274l-3.14,12.594c-1.758,7.052 -8.681,11.212 -15.733,9.454l3.14,-12.594c1.758,-7.053 8.681,-11.213 15.733,-9.454Z" style="fill:none;fill-rule:nonzero;stroke:#fff;stroke-opacity:.4;stroke-width:1px;stroke-linecap:butt;stroke-linejoin:round;stroke-miterlimit:2"/></g><path d="M1930.16,110.748l-19.175,-5.863c-10.738,-3.283 -16.595,-14.299 -13.312,-25.037l19.175,5.862c10.738,3.283 16.595,14.3 13.312,25.038Z" style="fill:none;fill-rule:nonzero;stroke:#fff;stroke-opacity:.62;stroke-width:1px;stroke-linecap:butt;stroke-linejoin:round;stroke-miterlimit:2"/><path d="M1887.86,12.909l-18.203,-10.51c-10.194,-5.885 -13.579,-18.519 -7.694,-28.712l18.203,10.509c10.194,5.886 13.579,18.519 7.694,28.713Z" style="fill:none;fill-rule:nonzero;stroke:#fff;stroke-opacity:.65;stroke-width:1px;stroke-linecap:butt;stroke-linejoin:round;stroke-miterlimit:2"/><g style="filter:url(#_Effect42)"><path d="M1840.22,606.898l-16.883,4.841c-9.454,2.711 -19.013,-2.587 -21.724,-12.042l16.883,-4.841c9.454,-2.711 19.013,2.588 21.724,12.042Z" style="fill:none;fill-rule:nonzero;stroke:#fff;stroke-opacity:.54;stroke-width:1px;stroke-linecap:butt;stroke-linejoin:round;stroke-miterlimit:2"/></g></g><g><g style="filter:url(#_Effect43)"><path d="M1839.22,359.898l-16.883,4.841c-9.454,2.711 -19.013,-2.587 -21.724,-12.042l16.883,-4.841c9.454,-2.711 19.013,2.588 21.724,12.042Z" style="fill:#405594;fill-opacity:.54;fill-rule:nonzero;stroke:#405594;stroke-opacity:.54;stroke-width:1px;stroke-linecap:butt;stroke-linejoin:round;stroke-miterlimit:2"/></g><g style="filter:url(#_Effect44)"><path d="M1816.08,160.569l-13.843,8.651c-7.753,4.844 -17.65,2.559 -22.494,-5.194l13.843,-8.65c7.753,-4.844 17.65,-2.559 22.494,5.193Z" style="fill:#405594;fill-opacity:.5;fill-rule:nonzero;stroke:#405594;stroke-opacity:.5;stroke-width:1px;stroke-linecap:butt;stroke-linejoin:round;stroke-miterlimit:2"/></g><g style="filter:url(#_Effect45)"><path d="M1896.99,531.842l-19.077,-2.006c-10.683,-1.122 -18.195,-10.399 -17.072,-21.082l19.077,2.005c10.683,1.123 18.195,10.399 17.072,21.083Z" style="fill:#405594;fill-opacity:.59;fill-rule:nonzero;stroke:#405594;stroke-opacity:.59;stroke-width:1px;stroke-linecap:butt;stroke-linejoin:round;stroke-miterlimit:2"/></g><path d="M1925.16,432.748l-19.175,-5.863c-10.738,-3.283 -16.595,-14.299 -13.312,-25.037l19.175,5.862c10.738,3.283 16.595,14.3 13.312,25.038Z" style="fill:#405594;fill-opacity:.62;fill-rule:nonzero;stroke:#405594;stroke-opacity:.62;stroke-width:1px;stroke-linecap:butt;stroke-linejoin:round;stroke-miterlimit:2"/><g style="filter:url(#_Effect46)"><path d="M1733.53,505.397l-5.335,12.568c-2.988,7.039 -10.865,10.221 -17.904,7.234l5.335,-12.569c2.988,-7.038 10.865,-10.221 17.904,-7.233Z" style="fill:#405594;fill-opacity:.42;fill-rule:nonzero;stroke:#405594;stroke-opacity:.42;stroke-width:1px;stroke-linecap:butt;stroke-linejoin:round;stroke-miterlimit:2"/></g><g style="filter:url(#_Effect48)"><path d="M1905.08,205.987l-19.211,-4.084c-10.758,-2.286 -17.415,-12.536 -15.128,-23.294l19.211,4.083c10.758,2.287 17.415,12.537 15.128,23.295Z" style="fill:#405594;fill-opacity:.6;fill-rule:nonzero;stroke:#405594;stroke-opacity:.6;stroke-width:1px;stroke-linecap:butt;stroke-linejoin:round;stroke-miterlimit:2"/></g></g></g><defs><filter id="_Effect1" width="549.63" height="507.882" x="1004.6" y="794.128" filterUnits="userSpaceOnUse"><feGaussianBlur in="SourceGraphic" stdDeviation="5.326"/></filter><filter id="_Effect2" width="549.63" height="507.882" x="-49.934" y="-66.008" filterUnits="userSpaceOnUse"><feGaussianBlur in="SourceGraphic" stdDeviation="5.326"/></filter><filter id="_Effect3" width="587.483" height="599.826" x="571.211" y="108.389" filterUnits="userSpaceOnUse"><feGaussianBlur in="SourceGraphic" stdDeviation="5.326"/></filter><filter id="_Effect4" width="4553.4" height="2056.77" x="-1293.05" y="-523.297" filterUnits="userSpaceOnUse"><feGaussianBlur in="SourceGraphic" stdDeviation=".5"/></filter><filter id="_Effect5" width="2344.02" height="1883.18" x="-67.452" y="-302.446" filterUnits="userSpaceOnUse"><feGaussianBlur in="SourceGraphic" stdDeviation="2"/></filter><filter id="_Effect6" width="66.563" height="54.56" x="276.87" y="585.409" filterUnits="userSpaceOnUse"><feGaussianBlur in="SourceGraphic" stdDeviation="2"/></filter><filter id="_Effect7" width="71.536" height="81.418" x="472.383" y="337.98" filterUnits="userSpaceOnUse"><feGaussianBlur in="SourceGraphic" stdDeviation="4"/></filter><filter id="_Effect8" width="64.567" height="46.605" x="232.868" y="687.387" filterUnits="userSpaceOnUse"><feGaussianBlur in="SourceGraphic" stdDeviation="2"/></filter><filter id="_Effect9" width="61.399" height="62.882" x="359.452" y="494.248" filterUnits="userSpaceOnUse"><feGaussianBlur in="SourceGraphic" stdDeviation="2"/></filter><filter id="_Effect10" width="65.669" height="51.056" x="264.317" y="174.161" filterUnits="userSpaceOnUse"><feGaussianBlur in="SourceGraphic" stdDeviation="2"/></filter><filter id="_Effect11" width="66.563" height="54.56" x="279.87" y="384.409" filterUnits="userSpaceOnUse"><feGaussianBlur in="SourceGraphic" stdDeviation="2"/></filter><filter id="_Effect12" width="63.601" height="62.837" x="349.351" y="679.271" filterUnits="userSpaceOnUse"><feGaussianBlur in="SourceGraphic" stdDeviation="2"/></filter><filter id="_Effect13" width="87.876" height="91.103" x="371.213" y="386.138" filterUnits="userSpaceOnUse"><feGaussianBlur in="SourceGraphic" stdDeviation="4"/></filter><filter id="_Effect14" width="63.596" height="46.082" x="247.353" y="491.648" filterUnits="userSpaceOnUse"><feGaussianBlur in="SourceGraphic" stdDeviation="2"/></filter><filter id="_Effect15" width="66.126" height="60.951" x="369.088" y="-18.786" filterUnits="userSpaceOnUse"><feGaussianBlur in="SourceGraphic" stdDeviation="2"/></filter><filter id="_Effect16" width="87.876" height="91.103" x="371.213" y="577.138" filterUnits="userSpaceOnUse"><feGaussianBlur in="SourceGraphic" stdDeviation="4"/></filter><filter id="_Effect17" width="79.927" height="87.132" x="454.188" y="40.123" filterUnits="userSpaceOnUse"><feGaussianBlur in="SourceGraphic" stdDeviation="4"/></filter><filter id="_Effect18" width="66.563" height="54.56" x="272.87" y="270.409" filterUnits="userSpaceOnUse"><feGaussianBlur in="SourceGraphic" stdDeviation="2"/></filter><filter id="_Effect19" width="69.995" height="54.843" x="272.154" y="-28.732" filterUnits="userSpaceOnUse"><feGaussianBlur in="SourceGraphic" stdDeviation="2"/></filter><filter id="_Effect20" width="61.399" height="62.882" x="374.452" y="300.248" filterUnits="userSpaceOnUse"><feGaussianBlur in="SourceGraphic" stdDeviation="2"/></filter><filter id="_Effect21" width="65.852" height="48.468" x="262.225" y="67.455" filterUnits="userSpaceOnUse"><feGaussianBlur in="SourceGraphic" stdDeviation="2"/></filter><filter id="_Effect22" width="71.536" height="81.418" x="471.383" y="550.98" filterUnits="userSpaceOnUse"><feGaussianBlur in="SourceGraphic" stdDeviation="4"/></filter><filter id="_Effect23" width="73.909" height="83.103" x="467.197" y="131.138" filterUnits="userSpaceOnUse"><feGaussianBlur in="SourceGraphic" stdDeviation="4"/></filter><filter id="_Effect24" width="62.841" height="62.841" x="359.731" y="95.269" filterUnits="userSpaceOnUse"><feGaussianBlur in="SourceGraphic" stdDeviation="2"/></filter><filter id="_Effect25" width="66.447" height="49.375" x="-63.072" y="595.002" filterUnits="userSpaceOnUse"><feGaussianBlur in="SourceGraphic" stdDeviation="2"/></filter><filter id="_Effect26" width="73.909" height="83.103" x="468.197" y="232.138" filterUnits="userSpaceOnUse"><feGaussianBlur in="SourceGraphic" stdDeviation="4"/></filter><filter id="_Effect27" width="61.399" height="62.882" x="372.452" y="197.248" filterUnits="userSpaceOnUse"><feGaussianBlur in="SourceGraphic" stdDeviation="2"/></filter><filter id="_Effect28" width="73.909" height="83.103" x="468.197" y="447.138" filterUnits="userSpaceOnUse"><feGaussianBlur in="SourceGraphic" stdDeviation="4"/></filter><filter id="_Effect29" width="69.924" height="54.797" x="-55.811" y="264.291" filterUnits="userSpaceOnUse"><feGaussianBlur in="SourceGraphic" stdDeviation="2"/></filter><filter id="_Effect30" width="77.757" height="85.75" x="467.273" y="-44.186" filterUnits="userSpaceOnUse"><feGaussianBlur in="SourceGraphic" stdDeviation="4"/></filter><filter id="_Effect31" width="73.909" height="83.103" x="464.197" y="662.138" filterUnits="userSpaceOnUse"><feGaussianBlur in="SourceGraphic" stdDeviation="4"/></filter><filter id="_Effect32" width="5483.8" height="1640.69" x="-2011.66" y="97.325" filterUnits="userSpaceOnUse"><feGaussianBlur in="SourceGraphic" stdDeviation="4"/></filter><filter id="_Effect33" width="66.888" height="57.905" x="1771.47" y="429.345" filterUnits="userSpaceOnUse"><feGaussianBlur in="SourceGraphic" stdDeviation="2"/></filter><filter id="_Effect34" width="80.019" height="87.253" x="1675.9" y="565.671" filterUnits="userSpaceOnUse"><feGaussianBlur in="SourceGraphic" stdDeviation="4"/></filter><filter id="_Effect35" width="73.179" height="82.633" x="1676.32" y="178.981" filterUnits="userSpaceOnUse"><feGaussianBlur in="SourceGraphic" stdDeviation="4"/></filter><filter id="_Effect36" width="66.686" height="54.644" x="1781.57" y="45.976" filterUnits="userSpaceOnUse"><feGaussianBlur in="SourceGraphic" stdDeviation="2"/></filter><filter id="_Effect37" width="80.019" height="87.253" x="1675.9" y="269.671" filterUnits="userSpaceOnUse"><feGaussianBlur in="SourceGraphic" stdDeviation="4"/></filter><filter id="_Effect38" width="66.888" height="57.905" x="1778.47" y="231.345" filterUnits="userSpaceOnUse"><feGaussianBlur in="SourceGraphic" stdDeviation="2"/></filter><filter id="_Effect39" width="80.019" height="87.253" x="1674.9" y="2.671" filterUnits="userSpaceOnUse"><feGaussianBlur in="SourceGraphic" stdDeviation="4"/></filter><filter id="_Effect40" width="73.179" height="82.633" x="1676.32" y="368.981" filterUnits="userSpaceOnUse"><feGaussianBlur in="SourceGraphic" stdDeviation="4"/></filter><filter id="_Effect41" width="73.179" height="82.633" x="1674.32" y="86.981" filterUnits="userSpaceOnUse"><feGaussianBlur in="SourceGraphic" stdDeviation="4"/></filter><filter id="_Effect42" width="66.686" height="54.644" x="1787.57" y="575.976" filterUnits="userSpaceOnUse"><feGaussianBlur in="SourceGraphic" stdDeviation="2"/></filter><filter id="_Effect43" width="66.686" height="54.644" x="1786.57" y="328.976" filterUnits="userSpaceOnUse"><feGaussianBlur in="SourceGraphic" stdDeviation="2"/></filter><filter id="_Effect44" width="66.251" height="61.058" x="1764.79" y="131.769" filterUnits="userSpaceOnUse"><feGaussianBlur in="SourceGraphic" stdDeviation="2"/></filter><filter id="_Effect45" width="66.447" height="49.375" x="1845.69" y="495.61" filterUnits="userSpaceOnUse"><feGaussianBlur in="SourceGraphic" stdDeviation="2"/></filter><filter id="_Effect46" width="80.019" height="87.253" x="1681.9" y="471.671" filterUnits="userSpaceOnUse"><feGaussianBlur in="SourceGraphic" stdDeviation="4"/></filter><filter id="_Effect47" width="65.149" height="62.021" x="1669.34" y="-65.713" filterUnits="userSpaceOnUse"><feGaussianBlur in="SourceGraphic" stdDeviation="2"/></filter><filter id="_Effect48" width="69.924" height="54.797" x="1852.95" y="164.899" filterUnits="userSpaceOnUse"><feGaussianBlur in="SourceGraphic" stdDeviation="2"/></filter></defs></svg>