<svg xmlns="http://www.w3.org/2000/svg" xmlns:xlink="http://www.w3.org/1999/xlink" width="100%" height="100%" version="1.1" viewBox="0 0 4320 4320" xml:space="preserve" style="fill-rule:evenodd;clip-rule:evenodd;stroke-linejoin:round;stroke-miterlimit:2"><g><g><path d="M-108.818,-108.818C-169.091,-108.818 -217.952,-60.098 -217.952,0.001C-217.952,60.099 -169.091,108.818 -108.818,108.818C-48.544,108.818 0.317,60.099 0.317,0.001C0.317,-60.098 -48.544,-108.818 -108.818,-108.818" style="fill:#eff6f7;fill-rule:nonzero" transform="matrix(4.06448,0,0,4.06448,-0.450735,-156.357) matrix(0,-4.16667,-4.16667,0,532.112,116.495)"/></g><g><path d="M0,44.836C-14.318,44.836 -18.396,33.608 -20.587,27.577C-22.794,21.499 -23.1,21.499 -25.482,21.499C-32.181,21.499 -35.874,24.216 -41.465,28.327C-46.699,32.177 -53.213,36.969 -63.059,39.275C-79.162,43.046 -87.448,33.779 -92.4,28.241C-94.3,26.117 -96.264,23.922 -97.559,23.634C-100.581,23.01 -110.597,27.649 -115.982,30.147C-117.234,30.727 -118.477,31.303 -119.698,31.858L-127.147,15.472C-125.966,14.936 -124.765,14.378 -123.554,13.816C-113.239,9.033 -102.57,4.086 -93.663,6.061C-86.709,7.604 -82.425,12.394 -78.983,16.242C-74.334,21.441 -72.604,23.024 -67.166,21.75C-60.908,20.284 -56.84,17.292 -52.13,13.827C-45.548,8.986 -38.087,3.499 -25.482,3.499C-10.181,3.499 -5.944,15.165 -3.668,21.433C-3.065,23.093 -1.942,26.184 -1.252,26.68C-1.182,26.718 -0.789,26.836 0,26.836C4.809,26.836 11.276,21.312 17.53,15.969C25.965,8.764 35.526,0.597 47.217,0.597C59.737,0.597 66.277,9.366 71.052,15.769C76.02,22.429 78.55,25.142 83.651,25.142C85.784,25.142 86.669,24.381 89.968,19.718C94.842,12.827 103.912,0 127.932,11.121L120.37,27.455C113.161,24.117 110.275,24.583 109.371,24.94C107.919,25.51 106.337,27.746 104.664,30.113C100.993,35.301 95.447,43.142 83.651,43.142C69.013,43.142 61.852,33.541 56.624,26.53C52.04,20.384 50.249,18.597 47.217,18.597C42.167,18.597 35.585,24.219 29.221,29.655C20.891,36.772 11.45,44.836 0,44.836" style="fill:#c8e7ee;fill-rule:nonzero" transform="matrix(4.06448,0,0,4.06448,-0.450735,-156.357) matrix(4.16667,0,0,4.16667,529.926,485.661)"/></g><g><path d="M0,-20.114C-3.063,-18.796 -7.276,-13.662 -8.071,-4.757L-8.151,-3.85C-8.167,-3.662 -8.177,-3.552 -8.183,-3.483C-8.221,-3.301 -8.27,-2.984 -8.387,-2.062C-8.86,1.668 -9.389,4.504 -10.002,6.608C-10.607,8.679 -11.167,9.566 -11.463,9.922C-11.934,9.373 -12.995,7.551 -13.971,1.745C-14.803,-3.198 -15.298,-9.232 -15.777,-15.067C-16.165,-19.781 -16.53,-24.234 -17.042,-27.534C-17.487,-30.411 -18.161,-34.758 -21.521,-34.758C-24.831,-34.758 -27.358,-34.288 -29.473,-33.28C-30.9,-32.579 -29.128,-29.422 -27.022,-29.332C-25.814,-29.908 -24.545,-30.107 -22.547,-30.183C-21.695,-27.8 -21.08,-20.318 -20.621,-14.717C-20.112,-8.525 -19.536,-1.507 -18.521,3.848C-17.945,6.885 -17.276,9.165 -16.476,10.817C-15.245,13.357 -13.556,14.644 -11.456,14.644C-7.632,14.644 -6.158,10.348 -5.673,8.936C-4.838,6.501 -4.148,3.08 -3.564,-1.523C-3.46,-2.337 -3.423,-2.568 -3.413,-2.623C-3.368,-2.814 -3.363,-2.878 -3.31,-3.476L-3.23,-4.377C-2.639,-11.002 -0.073,-12.185 1.275,-12.518C3.544,-13.213 1.907,-21.18 0,-20.114" style="fill:#ee2761;fill-rule:nonzero" transform="matrix(4.06448,0,0,4.06448,-0.450735,-156.357) matrix(4.16667,0,0,4.16667,739.023,626.168)"/></g><g><path d="M0,-0.069C-0.005,-0.047 -0.01,-0.027 -0.016,0C-0.01,-0.025 -0.005,-0.047 0,-0.069" style="fill:#ee2761;fill-rule:nonzero" transform="matrix(4.06448,0,0,4.06448,-0.450735,-156.357) matrix(4.16667,0,0,4.16667,705.027,611.482)"/></g><g><path d="M0,-21.974C-0.306,-28.435 -5.353,-35.302 -14.101,-35.302C-20.557,-35.302 -22.408,-27.297 -23.016,-24.667C-24.256,-19.301 -24.731,-12.312 -25.15,-6.146C-25.417,-2.214 -25.669,1.499 -26.082,4.423C-26.184,5.146 -26.289,5.766 -26.393,6.297C-26.512,5.626 -26.637,4.824 -26.763,3.869C-27.195,0.615 -27.539,-3.451 -27.904,-7.757C-28.431,-13.985 -28.977,-20.424 -29.867,-25.451C-30.808,-30.768 -32.221,-35.688 -36.153,-35.688C-37.977,-35.688 -40.423,-34.841 -41.721,-30.805C-42.418,-28.639 -42.727,-25.869 -43.027,-23.189C-43.306,-20.692 -43.595,-18.11 -44.173,-16.329C-44.535,-15.21 -44.953,-14.625 -45.178,-14.625C-45.428,-14.625 -45.887,-15.253 -46.283,-16.452C-46.891,-18.3 -47.208,-20.947 -47.514,-23.507C-47.826,-26.117 -48.149,-28.816 -48.811,-30.907C-49.501,-33.088 -50.985,-35.688 -54.131,-35.688C-56.011,-35.688 -57.486,-34.449 -58.514,-32.004C-59.139,-30.519 -59.682,-28.459 -60.175,-25.708C-61.05,-20.824 -61.635,-14.51 -62.2,-8.404C-62.613,-3.957 -63.002,0.245 -63.476,3.622C-63.495,3.761 -63.515,3.896 -63.534,4.029C-63.925,0.864 -64.247,-3.053 -64.516,-6.327C-65.024,-12.519 -65.601,-19.537 -66.615,-24.892C-67.191,-27.929 -67.86,-30.209 -68.66,-31.861C-69.891,-34.401 -71.58,-35.688 -73.68,-35.688C-75.78,-35.688 -77.469,-34.401 -78.7,-31.861C-79.5,-30.209 -80.169,-27.929 -80.745,-24.892C-81.759,-19.537 -82.336,-12.519 -82.844,-6.327C-83.296,-0.825 -83.897,6.492 -84.726,9.008C-86.996,8.364 -89.718,5.798 -90.825,4.468L-90.828,4.464L-90.817,4.456C-103.503,-10.244 -96.156,-25.232 -92.292,-31.175C-92.292,-31.175 -92.873,-32.852 -94.268,-33.927C-95.664,-35.002 -96.439,-33.548 -96.439,-33.548C-98.466,-30.429 -101.795,-24.395 -102.623,-16.992C-103.26,-11.303 -102.358,-5.88 -99.943,-0.781L-99.949,-0.779C-98.731,2.467 -95.129,6.719 -94.647,7.279C-94.029,8.023 -89.123,13.714 -83.745,13.714C-80.385,13.714 -79.711,9.367 -79.265,6.49C-78.754,3.19 -78.388,-1.263 -78.001,-5.977C-77.522,-11.812 -77.027,-17.847 -76.195,-22.789C-75.214,-28.625 -74.147,-30.436 -73.68,-30.974C-73.213,-30.436 -72.146,-28.625 -71.165,-22.789C-70.333,-17.846 -69.838,-11.812 -69.359,-5.977C-68.972,-1.263 -68.606,3.19 -68.095,6.49C-67.649,9.367 -66.975,13.714 -63.615,13.714C-61.984,13.714 -60.768,12.646 -60.001,10.539C-59.595,9.424 -59.234,7.869 -58.896,5.786C-58.296,2.08 -57.842,-2.821 -57.361,-8.01C-56.865,-13.372 -56.351,-18.917 -55.646,-23.398C-54.965,-27.725 -54.301,-29.725 -53.873,-30.636C-53.69,-30.279 -53.46,-29.696 -53.231,-28.758C-52.836,-27.137 -52.596,-25.127 -52.341,-22.999C-52.01,-20.229 -51.667,-17.366 -50.923,-15.108C-50.166,-12.809 -48.555,-10.07 -45.178,-10.07C-43.329,-10.07 -40.847,-10.926 -39.525,-15.003C-38.813,-17.201 -38.499,-20.004 -38.196,-22.714C-37.953,-24.887 -37.702,-27.133 -37.261,-28.831C-36.95,-30.027 -36.63,-30.615 -36.424,-30.894C-35.995,-30.163 -35.184,-28.207 -34.406,-23.176C-33.692,-18.563 -33.211,-12.886 -32.746,-7.396C-32.318,-2.351 -31.915,2.414 -31.36,5.995C-31.047,8.011 -30.706,9.517 -30.315,10.597C-29.569,12.665 -28.366,13.714 -26.742,13.714C-22.788,13.714 -21.895,8.718 -21.514,6.584C-20.923,3.273 -20.621,-1.161 -20.303,-5.856C-19.894,-11.862 -19.432,-18.67 -18.269,-23.702C-17.66,-26.333 -16.31,-30.747 -14.101,-30.747C-12.05,-30.747 -10.464,-30.181 -9.269,-29.452C-8.098,-30.697 -7.655,-30.989 -6.782,-30.799C-4.034,-29.032 -3.698,-28.495 -6.026,-25.974C-5.335,-24.686 -4.922,-23.236 -4.853,-21.772C-4.629,-17.056 -7.644,-15.117 -10.54,-14.875L-10.715,-14.854C-11.539,-14.729 -13.121,-14.683 -13.315,-14.923C-13.327,-14.941 -13.879,-17.196 -6.979,-24.975C-6.622,-25.341 -6.306,-25.671 -6.026,-25.974C-6.417,-26.701 -6.895,-27.377 -7.452,-27.973C-7.911,-28.464 -8.512,-28.991 -9.269,-29.452C-9.657,-29.041 -10.124,-28.525 -10.713,-27.889C-17.129,-20.655 -19.13,-16.017 -17.2,-12.85C-15.335,-9.79 -10.894,-10.227 -10.031,-10.344C-6.724,-10.638 -4.023,-12.036 -2.217,-14.39C-0.652,-16.43 0.135,-19.123 0,-21.974" style="fill:#ee2761;fill-rule:nonzero" transform="matrix(4.06448,0,0,4.06448,-0.450735,-156.357) matrix(4.16667,0,0,4.16667,629.023,630.045)"/></g><g><path d="M0,49.006C0,49.006 -1.052,48.806 -2.862,47.775C-4.671,46.743 -3.24,45.612 -3.24,45.612L-2.023,44.59C-0.435,43.077 1.572,40.665 2.227,37.686C2.972,34.304 1.824,30.778 -1.185,27.206C-4.99,22.689 -6.504,18.064 -5.688,13.46C-4.315,5.722 3.23,1.08 3.551,0.887C4.841,0 5.659,1.596 6.188,4.712C6.127,4.749 0.098,8.498 -0.901,14.236C-1.472,17.511 -0.285,20.925 2.626,24.382C9.264,32.263 8.809,40.814 1.377,47.844L1.273,47.937L0,49.006Z" style="fill:#ee2761;fill-rule:nonzero" transform="matrix(4.06448,0,0,4.06448,-0.450735,-156.357) matrix(4.16667,0,0,4.16667,776.568,477.707)"/></g><g><g><path d="M0.135,-0.093L0.281,-0.093L0.281,-0.514C0.281,-0.53 0.281,-0.548 0.282,-0.566L0.179,-0.478C0.174,-0.475 0.17,-0.472 0.165,-0.471C0.161,-0.47 0.156,-0.469 0.152,-0.469C0.145,-0.469 0.139,-0.47 0.134,-0.473C0.128,-0.476 0.124,-0.479 0.122,-0.483L0.083,-0.537L0.303,-0.724L0.405,-0.724L0.405,-0.093L0.535,-0.093L0.535,-0L0.135,-0L0.135,-0.093Z" style="fill:#23c4f1;fill-rule:nonzero" transform="matrix(4.06448,0,0,4.06448,-0.450735,-156.357) matrix(0.26491,0,0,0.26491,-78.8329,-12.3118) matrix(414.221,0,0,414.221,3096.54,1714.68)"/></g><g><path d="M0.313,-0.731C0.346,-0.731 0.376,-0.726 0.403,-0.717C0.43,-0.707 0.453,-0.694 0.471,-0.677C0.491,-0.66 0.505,-0.641 0.515,-0.618C0.525,-0.595 0.531,-0.571 0.531,-0.545C0.531,-0.522 0.528,-0.501 0.523,-0.484C0.518,-0.466 0.51,-0.451 0.5,-0.438C0.49,-0.425 0.478,-0.414 0.464,-0.405C0.45,-0.396 0.434,-0.389 0.416,-0.383C0.459,-0.369 0.492,-0.348 0.513,-0.32C0.534,-0.292 0.545,-0.257 0.545,-0.215C0.545,-0.179 0.538,-0.147 0.525,-0.119C0.512,-0.091 0.494,-0.068 0.471,-0.049C0.448,-0.03 0.422,-0.016 0.392,-0.007C0.362,0.003 0.331,0.008 0.298,0.008C0.261,0.008 0.23,0.004 0.203,-0.005C0.175,-0.013 0.152,-0.025 0.132,-0.042C0.112,-0.058 0.095,-0.078 0.081,-0.102C0.067,-0.125 0.055,-0.153 0.045,-0.184L0.1,-0.206C0.109,-0.21 0.118,-0.212 0.128,-0.212C0.137,-0.212 0.144,-0.21 0.151,-0.206C0.158,-0.203 0.163,-0.198 0.167,-0.191C0.173,-0.179 0.18,-0.167 0.187,-0.156C0.194,-0.145 0.203,-0.135 0.213,-0.126C0.223,-0.117 0.234,-0.11 0.248,-0.104C0.261,-0.099 0.277,-0.096 0.296,-0.096C0.317,-0.096 0.335,-0.099 0.351,-0.106C0.367,-0.113 0.38,-0.122 0.39,-0.133C0.401,-0.144 0.409,-0.156 0.414,-0.17C0.419,-0.183 0.422,-0.197 0.422,-0.211C0.422,-0.228 0.42,-0.244 0.416,-0.258C0.412,-0.272 0.405,-0.284 0.393,-0.294C0.381,-0.304 0.365,-0.312 0.343,-0.318C0.321,-0.323 0.292,-0.326 0.255,-0.326L0.255,-0.414C0.285,-0.414 0.311,-0.417 0.331,-0.423C0.35,-0.428 0.366,-0.435 0.378,-0.445C0.39,-0.454 0.398,-0.466 0.403,-0.479C0.408,-0.492 0.41,-0.507 0.41,-0.523C0.41,-0.557 0.401,-0.583 0.382,-0.601C0.363,-0.618 0.338,-0.627 0.306,-0.627C0.276,-0.627 0.252,-0.619 0.233,-0.604C0.213,-0.588 0.2,-0.568 0.192,-0.544C0.188,-0.531 0.183,-0.522 0.175,-0.517C0.169,-0.511 0.159,-0.509 0.148,-0.509C0.143,-0.509 0.137,-0.509 0.131,-0.51L0.066,-0.521C0.071,-0.556 0.081,-0.587 0.095,-0.613C0.109,-0.639 0.127,-0.661 0.149,-0.678C0.17,-0.696 0.195,-0.709 0.223,-0.718C0.251,-0.727 0.281,-0.731 0.313,-0.731Z" style="fill:#23c4f1;fill-rule:nonzero" transform="matrix(4.06448,0,0,4.06448,-0.450735,-156.357) matrix(0.26491,0,0,0.26491,-78.8329,-12.3118) matrix(414.221,0,0,414.221,3336.78,1714.68)"/></g></g><g><g><path d="M0.738,-0L0.607,-0C0.592,-0 0.58,-0.003 0.571,-0.01C0.561,-0.017 0.555,-0.026 0.551,-0.037L0.508,-0.164L0.231,-0.164L0.188,-0.037C0.185,-0.027 0.178,-0.019 0.169,-0.011C0.159,-0.004 0.147,-0 0.133,-0L0.001,-0L0.283,-0.729L0.456,-0.729L0.738,-0ZM0.27,-0.279L0.469,-0.279L0.402,-0.478C0.398,-0.491 0.393,-0.506 0.387,-0.523C0.381,-0.54 0.375,-0.559 0.37,-0.579C0.364,-0.558 0.359,-0.539 0.353,-0.522C0.347,-0.505 0.342,-0.49 0.337,-0.477L0.27,-0.279Z" style="fill:#23c4f1;fill-rule:nonzero" transform="matrix(4.06448,0,0,4.06448,-0.450735,-156.357) matrix(0.280358,0,0,0.280358,-232.944,312.069) matrix(391.396,0,0,391.396,3088.12,1714.68)"/></g><g><path d="M0.403,-0.122C0.426,-0.122 0.447,-0.124 0.465,-0.128C0.483,-0.132 0.5,-0.137 0.516,-0.144L0.516,-0.255L0.444,-0.255C0.433,-0.255 0.425,-0.257 0.419,-0.263C0.413,-0.269 0.41,-0.276 0.41,-0.284L0.41,-0.378L0.669,-0.378L0.669,-0.07C0.65,-0.056 0.631,-0.045 0.611,-0.035C0.591,-0.025 0.569,-0.017 0.546,-0.011C0.523,-0.004 0.499,0 0.473,0.003C0.447,0.006 0.42,0.008 0.39,0.008C0.337,0.008 0.287,-0.001 0.242,-0.02C0.197,-0.039 0.157,-0.065 0.124,-0.098C0.091,-0.131 0.065,-0.171 0.046,-0.216C0.027,-0.262 0.018,-0.311 0.018,-0.365C0.018,-0.419 0.027,-0.469 0.045,-0.514C0.063,-0.56 0.089,-0.599 0.122,-0.632C0.156,-0.665 0.196,-0.691 0.244,-0.709C0.291,-0.727 0.344,-0.737 0.403,-0.737C0.433,-0.737 0.462,-0.734 0.489,-0.729C0.515,-0.724 0.54,-0.717 0.562,-0.709C0.585,-0.7 0.605,-0.69 0.624,-0.678C0.643,-0.666 0.659,-0.653 0.674,-0.639L0.625,-0.564C0.62,-0.557 0.615,-0.552 0.608,-0.548C0.602,-0.544 0.595,-0.542 0.587,-0.542C0.577,-0.542 0.567,-0.545 0.556,-0.552C0.543,-0.56 0.53,-0.566 0.518,-0.572C0.506,-0.578 0.494,-0.583 0.482,-0.587C0.47,-0.59 0.457,-0.593 0.443,-0.595C0.429,-0.596 0.414,-0.597 0.397,-0.597C0.365,-0.597 0.337,-0.591 0.312,-0.58C0.286,-0.569 0.265,-0.553 0.247,-0.533C0.229,-0.513 0.215,-0.488 0.205,-0.46C0.196,-0.431 0.191,-0.4 0.191,-0.365C0.191,-0.326 0.196,-0.292 0.207,-0.262C0.218,-0.232 0.232,-0.206 0.251,-0.186C0.27,-0.165 0.292,-0.149 0.318,-0.138C0.344,-0.127 0.372,-0.122 0.403,-0.122Z" style="fill:#23c4f1;fill-rule:nonzero" transform="matrix(4.06448,0,0,4.06448,-0.450735,-156.357) matrix(0.280358,0,0,0.280358,-232.944,312.069) matrix(391.396,0,0,391.396,3364.84,1714.68)"/></g><g><path d="M0.696,-0L0.526,-0L0.526,-0.308L0.23,-0.308L0.23,-0L0.06,-0L0.06,-0.729L0.23,-0.729L0.23,-0.424L0.526,-0.424L0.526,-0.729L0.696,-0.729L0.696,-0Z" style="fill:#23c4f1;fill-rule:nonzero" transform="matrix(4.06448,0,0,4.06448,-0.450735,-156.357) matrix(0.280358,0,0,0.280358,-232.944,312.069) matrix(391.396,0,0,391.396,3643.51,1714.68)"/></g></g></g></svg>